<?xml version="1.0" encoding="utf-8"?>
<!-- Generator: Adobe Illustrator 27.5.0, SVG Export Plug-In . SVG Version: 6.00 Build 0)  -->
<svg version="1.1" xmlns="http://www.w3.org/2000/svg" xmlns:xlink="http://www.w3.org/1999/xlink" x="0px" y="0px"
	 viewBox="0 0 750 500" style="enable-background:new 0 0 750 500;" xml:space="preserve">
<g id="BACKGROUND">
	<rect style="fill:#DFE9EF;" width="750" height="500"/>
</g>
<g id="OBJECTS">
	<g>
		<g>
			<path style="fill:#1FBBA6;" d="M556.635,381.33h-32.393c-3.247,0-5.879,2.632-5.879,5.879v25.6c0,3.247,2.632,5.879,5.879,5.879
				h32.393c3.247,0,5.879-2.632,5.879-5.879v-25.6C562.514,383.962,559.882,381.33,556.635,381.33z"/>
			<path style="fill:#1FDDC1;" d="M560.513,387.212v12.8h-40.15v-12.8c0-2.14,1.74-3.88,3.88-3.88h32.39
				C558.773,383.332,560.513,385.072,560.513,387.212z"/>
			<path style="fill:#1FBBA6;" d="M613.676,381.33h-32.393c-3.247,0-5.879,2.632-5.879,5.879v25.6c0,3.247,2.632,5.879,5.879,5.879
				h32.393c3.247,0,5.879-2.632,5.879-5.879v-25.6C619.555,383.962,616.923,381.33,613.676,381.33z"/>
			<path style="fill:#1FDDC1;" d="M617.553,387.212v12.8h-40.15v-12.8c0-2.14,1.74-3.88,3.88-3.88h32.39
				C615.813,383.332,617.553,385.072,617.553,387.212z"/>
			<path style="fill:#1FBBA6;" d="M670.717,381.33h-32.393c-3.247,0-5.879,2.632-5.879,5.879v25.6c0,3.247,2.632,5.879,5.879,5.879
				h32.393c3.247,0,5.879-2.632,5.879-5.879v-25.6C676.596,383.962,673.964,381.33,670.717,381.33z"/>
			<path style="fill:#1FDDC1;" d="M674.593,387.212v12.8h-40.15v-12.8c0-2.14,1.74-3.88,3.88-3.88h32.39
				C672.853,383.332,674.593,385.072,674.593,387.212z"/>
			<path style="fill:#1FBBA6;" d="M727.758,381.33h-32.393c-3.247,0-5.879,2.632-5.879,5.879v25.6c0,3.247,2.632,5.879,5.879,5.879
				h32.393c3.247,0,5.879-2.632,5.879-5.879v-25.6C733.637,383.962,731.005,381.33,727.758,381.33z"/>
			<path style="fill:#1FDDC1;" d="M731.633,387.212v12.8h-40.15v-12.8c0-2.14,1.74-3.88,3.88-3.88h32.4
				C729.893,383.332,731.633,385.072,731.633,387.212z"/>
			<g>
				<g>
					<path style="fill:#1FBBA6;" d="M210.019,22.246H35.039c-10.314,0-18.676,8.362-18.676,18.676s8.362,18.676,18.676,18.676
						h174.98c10.314,0,18.676-8.362,18.676-18.676S220.333,22.246,210.019,22.246z"/>
					<g>
						<g>
							<path style="fill:#1FDDC1;" d="M226.69,40.922H18.36c0-9.2,7.48-16.68,16.68-16.68H210.02
								C219.21,24.242,226.69,31.722,226.69,40.922z"/>
						</g>
					</g>
					<path style="fill:#1FBBA6;" d="M714.961,22.246H257.942c-10.315,0-18.676,8.362-18.676,18.676s8.362,18.676,18.676,18.676
						h457.019c10.315,0,18.676-8.362,18.676-18.676S725.276,22.246,714.961,22.246z"/>
				</g>
				<path style="fill:#1FDDC1;" d="M731.633,40.922h-490.37c0-9.2,7.48-16.68,16.68-16.68h457.02
					C724.153,24.242,731.633,31.722,731.633,40.922z"/>
				<g>
					<path style="fill:#444343;" d="M720.998,48.899l-5.065-5.018c2.381-3.048,2.176-7.473-0.627-10.276
						c-1.468-1.469-3.42-2.277-5.497-2.277c-2.077,0-4.029,0.808-5.497,2.277c-3.031,3.031-3.031,7.963,0,10.994
						c1.468,1.469,3.42,2.277,5.497,2.277c1.758,0,3.424-0.585,4.786-1.654l5.064,5.017c0.185,0.185,0.427,0.278,0.67,0.278
						c0.242,0,0.485-0.093,0.67-0.278C721.368,49.868,721.368,49.269,720.998,48.899z M705.652,43.259
						c-2.292-2.292-2.292-6.023,0-8.315c1.11-1.11,2.587-1.722,4.157-1.722c1.57,0,3.047,0.611,4.157,1.722
						c2.292,2.292,2.292,6.023,0,8.315c-1.11,1.11-2.587,1.722-4.157,1.722C708.239,44.981,706.762,44.37,705.652,43.259z"/>
				</g>
				<rect x="341.893" y="24.782" style="fill:#444343;" width="347.99" height="32.27"/>
				<polygon points="689.893,24.792 689.893,27.392 689.883,27.392 689.883,57.052 686.133,57.052 686.133,28.552 341.893,28.552 
					341.893,24.792 687.283,24.792 687.283,24.782 689.883,24.782 689.883,24.792 				"/>
				
					<text transform="matrix(1 0 0 1 357.3877 45.0339)" style="fill:#149689; font-family:'Montserrat-Medium'; font-size:14.0147px;">enter text here...</text>
				
					<text transform="matrix(1 0 0 1 260.1375 45.9428)" style="fill:#444343; font-family:'Montserrat-Medium'; font-size:17.106px;">Search</text>
			</g>
			<g>
				
					<text transform="matrix(1 0 0 1 58.4207 46.6908)" style="fill:#444343; font-family:'Montserrat-Medium'; font-size:17.327px;">Menu Option</text>
				<g>
					<path style="fill:#444343;" d="M214.238,39.119l-5.431,6.134c-0.252,0.284-0.659,0.284-0.911,0l-5.431-6.134
						c-0.406-0.458-0.118-1.242,0.455-1.242h10.862C214.356,37.878,214.644,38.661,214.238,39.119z"/>
				</g>
				<g>
					<path style="fill:#444343;" d="M47.125,37.136H34.37c-0.613,0-1.109-0.497-1.109-1.109l0,0c0-0.613,0.497-1.109,1.109-1.109
						h12.755c0.613,0,1.109,0.497,1.109,1.109l0,0C48.234,36.639,47.737,37.136,47.125,37.136z"/>
					<path style="fill:#444343;" d="M47.125,42.032H34.37c-0.613,0-1.109-0.497-1.109-1.109l0,0c0-0.613,0.497-1.109,1.109-1.109
						h12.755c0.613,0,1.109,0.497,1.109,1.109l0,0C48.234,41.535,47.737,42.032,47.125,42.032z"/>
					<path style="fill:#444343;" d="M47.125,46.927H34.37c-0.613,0-1.109-0.497-1.109-1.109l0,0c0-0.613,0.497-1.109,1.109-1.109
						h12.755c0.613,0,1.109,0.497,1.109,1.109l0,0C48.234,46.431,47.737,46.927,47.125,46.927z"/>
				</g>
			</g>
			<g>
				<rect x="188.978" y="24.242" style="fill:#444343;" width="1.225" height="33.36"/>
				<g>
					<rect x="190.203" y="24.242" style="fill:#1FDDC1;" width="1.225" height="33.36"/>
				</g>
			</g>
			<g>
				<path style="fill:#1FBBA6;" d="M714.98,110.782H35.02c-10.304,0-18.657-8.353-18.657-18.657v0
					c0-10.304,8.353-18.657,18.657-18.657h679.96c10.304,0,18.657,8.353,18.657,18.657v0
					C733.637,102.429,725.284,110.782,714.98,110.782z"/>
				<path style="fill:#1FDDC1;" d="M731.637,93.802H18.363c0-10.11,8.22-18.33,18.33-18.33h676.614
					C723.417,75.472,731.637,83.692,731.637,93.802z"/>
				<path style="fill:#444343;" d="M311.46,92.125L311.46,92.125c0-8.468,6.865-15.333,15.333-15.333h238.866
					c8.468,0,15.333,6.865,15.333,15.333v0c0,8.468-6.865,15.333-15.333,15.333H326.793
					C318.325,107.458,311.46,100.593,311.46,92.125z"/>
				<path style="fill:#444343;" d="M20.196,92.125L20.196,92.125c0-8.468,6.865-15.333,15.333-15.333h238.866
					c8.468,0,15.333,6.865,15.333,15.333v0c0,8.468-6.865,15.333-15.333,15.333H35.529C27.061,107.458,20.196,100.593,20.196,92.125
					z"/>
				<path d="M580.993,92.122c0,4.24-1.72,8.07-4.49,10.85c-0.63,0.63-1.31,1.2-2.04,1.71c1.76-2.49,2.79-5.53,2.79-8.82
					c0-8.47-6.86-15.33-15.33-15.33h-238.87c-3.27,0-6.31,1.02-8.8,2.78c2.76-3.94,7.35-6.52,12.54-6.52h238.87
					C574.123,76.792,580.993,83.652,580.993,92.122z"/>
				<path d="M289.733,92.122c0,4.24-1.72,8.07-4.49,10.85c-0.63,0.63-1.32,1.2-2.05,1.71c1.77-2.49,2.8-5.53,2.8-8.82
					c0-8.47-6.87-15.33-15.34-15.33H31.793c-3.28,0-6.33,1.03-8.82,2.79c2.77-3.95,7.36-6.53,12.56-6.53h238.86
					C282.863,76.792,289.733,83.652,289.733,92.122z"/>
			</g>
			<g>
				
					<text transform="matrix(1 0 0 1 58.7003 96.2477)" style="fill:#149689; font-family:'Montserrat-Medium'; font-size:10.4868px;">Username...</text>
				<g>
					<circle style="fill:#149689;" cx="45.717" cy="89.069" r="4.181"/>
					<path style="fill:#149689;" d="M51.357,99.361h-11.28c-0.726,0-1.299-0.657-1.156-1.368c0.635-3.175,3.439-5.562,6.796-5.562
						c3.357,0,6.16,2.387,6.796,5.562C52.655,98.704,52.083,99.361,51.357,99.361z"/>
				</g>
			</g>
			<g>
				
					<text transform="matrix(1 0 0 1 360.808 98.4396)" style="fill:#149689; font-family:'Montserrat-Medium'; font-size:10.4868px;">*********************</text>
				<g>
					<path style="fill:#149689;" d="M347.838,89.019v-1.467c0-2.482-2.019-4.501-4.5-4.501c-2.482,0-4.501,2.019-4.501,4.501v1.467
						h-2.316v10.229h13.634V89.019H347.838z M340.183,87.552c0-1.739,1.415-3.155,3.155-3.155c1.74,0,3.155,1.416,3.155,3.155v1.467
						h-6.309V87.552z M344.152,94.322v1.777c0,0.458-0.363,0.821-0.821,0.821c-0.444,0-0.821-0.363-0.821-0.821v-1.777
						c-0.471-0.283-0.781-0.781-0.781-1.359c0-0.888,0.727-1.602,1.602-1.602c0.888,0,1.602,0.713,1.602,1.602
						C344.933,93.542,344.623,94.053,344.152,94.322z"/>
				</g>
			</g>
			
				<text transform="matrix(1 0 0 1 637.6323 99.2892)" style="fill:#444343; font-family:'Montserrat-Medium'; font-size:18.7016px;">LOGIN</text>
			<g>
				<rect x="20.52" y="117.797" style="fill:#2D2B2C;" width="485.537" height="251.508"/>
				<rect x="22.484" y="119.762" style="fill:#444343;" width="481.608" height="247.579"/>
				<rect x="22.484" y="119.762" style="fill:#1FBBA6;" width="481.608" height="22.671"/>
				<rect x="24.449" y="121.726" style="fill:#1FDDC1;" width="477.679" height="9.591"/>
				<rect x="22.484" y="340.738" style="fill:#2D2B2C;" width="481.608" height="26.603"/>
				<path style="fill:#444343;" d="M105.825,132.481c-0.459,0-0.868,0.199-1.156,0.512l-2.708-1.715
					c0.074-0.183,0.117-0.382,0.117-0.592c0-0.21-0.043-0.409-0.117-0.592l2.708-1.715c0.288,0.313,0.697,0.512,1.156,0.512
					c0.871,0,1.577-0.706,1.577-1.577s-0.706-1.577-1.577-1.577c-0.871,0-1.577,0.706-1.577,1.577c0,0.21,0.043,0.409,0.117,0.592
					l-2.708,1.715c-0.288-0.313-0.697-0.512-1.156-0.512c-0.871,0-1.577,0.706-1.577,1.577c0,0.871,0.706,1.577,1.577,1.577
					c0.459,0,0.868-0.199,1.156-0.512l2.708,1.715c-0.074,0.183-0.117,0.382-0.117,0.592c0,0.871,0.706,1.577,1.577,1.577
					c0.871,0,1.577-0.706,1.577-1.577S106.696,132.481,105.825,132.481z"/>
				<g>
					<g>
						<circle style="fill:#2D2B2C;" cx="235.641" cy="243.551" r="22.901"/>
						<g>
							<path style="fill:#1FBBA6;" d="M231.388,251.173v-15.244c0-1.356,1.54-2.138,2.635-1.338l10.43,7.622
								c0.906,0.662,0.906,2.014,0,2.676l-10.43,7.622C232.928,253.311,231.388,252.529,231.388,251.173z"/>
						</g>
					</g>
					<g>
						<g>
							<circle style="fill:#2D2B2C;" cx="290.935" cy="243.551" r="22.901"/>
						</g>
						<g>
							<rect x="284.122" y="235.94" style="fill:#1FBBA6;" width="3.928" height="15.223"/>
							<g>
								<rect x="293.82" y="235.94" style="fill:#1FBBA6;" width="3.928" height="15.223"/>
							</g>
						</g>
					</g>
				</g>
				<g>
					<g>
						<path style="fill:#444343;" d="M441.236,355.716H71.955c-0.814,0-1.473-0.66-1.473-1.473c0-0.813,0.659-1.473,1.473-1.473
							h369.281c0.813,0,1.473,0.66,1.473,1.473C442.709,355.056,442.049,355.716,441.236,355.716z"/>
					</g>
					<g>
						<g>
							<path style="fill:#1FBBA6;" d="M229.587,355.716H71.955c-0.814,0-1.473-0.66-1.473-1.473c0-0.813,0.659-1.473,1.473-1.473
								h157.632c0.814,0,1.473,0.66,1.473,1.473C231.06,355.056,230.401,355.716,229.587,355.716z"/>
						</g>
					</g>
					<circle style="fill:#1FBBA6;" cx="228.728" cy="354.243" r="3.56"/>
				</g>
				<g>
					<path style="fill:#1FBBA6;" d="M475.771,352.863h-1.303c-0.055-0.155-0.115-0.304-0.185-0.449l0.918-0.923
						c0.205-0.205,0.205-0.539,0-0.744l-1.213-1.213c-0.205-0.205-0.539-0.205-0.744,0l-0.918,0.923
						c-0.145-0.07-0.294-0.135-0.449-0.185v-1.303c0-0.294-0.235-0.529-0.529-0.529h-1.712c-0.289,0-0.524,0.235-0.524,0.529v1.303
						c-0.155,0.05-0.304,0.115-0.449,0.185l-0.923-0.923c-0.205-0.205-0.539-0.205-0.744,0l-1.213,1.213
						c-0.205,0.205-0.205,0.539,0,0.744l0.923,0.923c-0.07,0.145-0.135,0.294-0.185,0.449h-1.303c-0.294,0-0.529,0.235-0.529,0.524
						v1.712c0,0.294,0.235,0.529,0.529,0.529h1.303c0.05,0.155,0.115,0.304,0.185,0.449l-0.923,0.918
						c-0.205,0.21-0.205,0.539,0,0.749l1.213,1.208c0.205,0.205,0.539,0.205,0.744,0l0.923-0.918c0.145,0.07,0.294,0.13,0.449,0.185
						v1.303c0,0.29,0.235,0.524,0.524,0.524h1.712c0.295,0,0.529-0.235,0.529-0.524v-1.303c0.155-0.055,0.304-0.115,0.449-0.185
						l0.918,0.918c0.205,0.205,0.539,0.205,0.744,0l1.213-1.208c0.205-0.21,0.205-0.539,0-0.749l-0.918-0.918
						c0.07-0.145,0.13-0.294,0.185-0.449h1.303c0.289,0,0.524-0.235,0.524-0.529v-1.712
						C476.295,353.098,476.061,352.863,475.771,352.863z M470.496,356.786c-1.402,0-2.54-1.138-2.54-2.54
						c0-1.402,1.138-2.54,2.54-2.54c1.402,0,2.54,1.138,2.54,2.54C473.036,355.648,471.898,356.786,470.496,356.786z"/>
				</g>
				<path style="fill:#1FBBA6;" d="M490.544,360.241v-1.214h2.96v-2.965h1.215v4.179H490.544z M482.722,360.241v-4.179h1.214v2.965
					h2.965v1.214H482.722z M493.504,352.42v-2.961h-2.96v-1.214h4.175v4.175H493.504z M482.722,352.42v-4.175h4.179v1.214h-2.965
					v2.961H482.722z"/>
				<g>
					<path style="fill:#1FBBA6;" d="M455.545,352.51v3.466c0.961,0,1.733-0.772,1.733-1.733
						C457.277,353.282,456.505,352.51,455.545,352.51z"/>
					<path style="fill:#1FBBA6;" d="M453.867,348.787l-2.941,2.085h-1.638c-1.123,0-2.034,0.911-2.034,2.034v2.673
						c0,1.123,0.911,2.034,2.034,2.034h1.632l2.947,2.089c0.499,0.349,1.193,0,1.193-0.604v-9.707
						C455.059,348.781,454.365,348.432,453.867,348.787z"/>
				</g>
				<g>
					<g>
						<path style="fill:#0E7A6D;" d="M56.655,359.049v-9.612c0-0.855,0.971-1.348,1.661-0.844l6.577,4.806
							c0.571,0.417,0.571,1.27,0,1.687l-6.577,4.806C57.626,360.397,56.655,359.904,56.655,359.049z"/>
					</g>
					<g>
						<rect x="64.401" y="348.39" style="fill:#0E7A6D;" width="2.46" height="11.706"/>
					</g>
				</g>
				<g>
					<g>
						<path style="fill:#0E7A6D;" d="M36.251,359.049v-9.612c0-0.855-0.971-1.348-1.661-0.844l-6.577,4.806
							c-0.571,0.417-0.571,1.27,0,1.687l6.577,4.806C35.28,360.397,36.251,359.904,36.251,359.049z"/>
					</g>
					<g>
						<rect x="26.045" y="348.39" style="fill:#0E7A6D;" width="2.46" height="11.706"/>
					</g>
				</g>
				<g>
					<path style="fill:#1FBBA6;" d="M42.119,359.049v-9.612c0-0.855,0.971-1.348,1.661-0.844l6.577,4.806
						c0.571,0.417,0.571,1.27,0,1.687l-6.577,4.806C43.091,360.397,42.119,359.904,42.119,359.049z"/>
				</g>
				<g>
					<g>
						<rect x="27.089" y="123.25" style="fill:#444343;" width="3.283" height="3.283"/>
						<rect x="31.371" y="123.25" style="fill:#444343;" width="3.284" height="3.283"/>
						<rect x="35.652" y="123.25" style="fill:#444343;" width="3.283" height="3.283"/>
					</g>
					<g>
						<rect x="27.089" y="127.402" style="fill:#444343;" width="3.283" height="3.283"/>
						<rect x="31.371" y="127.402" style="fill:#444343;" width="3.284" height="3.283"/>
						<rect x="35.652" y="127.402" style="fill:#444343;" width="3.283" height="3.283"/>
					</g>
					<g>
						<rect x="27.089" y="131.555" style="fill:#444343;" width="3.283" height="3.284"/>
						<rect x="31.371" y="131.555" style="fill:#444343;" width="3.284" height="3.284"/>
						<rect x="35.652" y="131.555" style="fill:#444343;" width="3.283" height="3.284"/>
					</g>
				</g>
				<g>
					<path style="fill:#444343;" d="M474.23,134.442h7.591c0.819,0,1.484-0.664,1.484-1.484v-7.591c0-0.819-0.664-1.484-1.484-1.484
						h-7.591c-0.819,0-1.484,0.664-1.484,1.484v7.591C472.746,133.778,473.41,134.442,474.23,134.442z"/>
					<g>
						<polygon style="fill:#1FBBA6;" points="481.033,128.283 478.905,128.283 478.905,126.155 477.145,126.155 477.145,128.283 
							475.017,128.283 475.017,130.043 477.145,130.043 477.145,132.171 478.905,132.171 478.905,130.043 481.033,130.043 						"/>
					</g>
				</g>
				<g>
					<g>
						<path style="fill:#444343;" d="M54.443,126.91c0,1.702-1.38,3.082-3.083,3.082s-3.082-1.38-3.082-3.082
							c0-1.702,1.38-3.083,3.082-3.083S54.443,125.208,54.443,126.91z"/>
						<path style="fill:#444343;" d="M55.518,134.498h-8.316c-0.535,0-0.957-0.484-0.852-1.009c0.469-2.341,2.535-4.101,5.01-4.101
							c2.475,0,4.542,1.76,5.01,4.101C56.475,134.014,56.053,134.498,55.518,134.498z"/>
					</g>
					
						<text transform="matrix(1 0 0 1 60.2329 133.1967)" style="fill:#444343; font-family:'Montserrat-Medium'; font-size:9.618px;">Profile</text>
				</g>
				<g>
					<path style="fill:#444343;" d="M467.199,129.584l-2.603,2.603c-0.147,0.147-0.393,0.147-0.54,0l-2.603-2.603
						c-0.236-0.236-0.069-0.648,0.275-0.648h1.513v-5.166h2.171v5.166h1.513C467.268,128.936,467.435,129.348,467.199,129.584z"/>
					<g>
						<path style="fill:#444343;" d="M499.717,128.514l-3.998-3.211c-0.42-0.337-1.01-0.008-1.01,0.564v1.278
							c0,0-6.853,1.124-6.853,6.014c0,0,1.203-2.335,6.853-2.335v1.465c0,0.571,0.59,0.901,1.01,0.564l3.998-3.211
							C500.064,129.362,500.064,128.793,499.717,128.514z"/>
						<path style="fill:#444343;" d="M468.235,133.46h-7.817c-0.271,0-0.491,0.22-0.491,0.491c0,0.271,0.22,0.491,0.491,0.491h7.817
							c0.271,0,0.491-0.22,0.491-0.491C468.726,133.68,468.507,133.46,468.235,133.46z"/>
					</g>
				</g>
			</g>
			<g>
				<path style="fill:#1FBBA6;" d="M236.274,339.646h-15.092c-1.252,0-2.266,1.015-2.266,2.266v5.325
					c0,1.252,1.015,2.266,2.266,2.266h5.945l1.601,1.848l1.601-1.848h5.945c1.252,0,2.266-1.015,2.266-2.266v-5.325
					C238.54,340.661,237.525,339.646,236.274,339.646z"/>
				
					<text transform="matrix(1 0 0 1 220.1055 346.6672)" style="fill:#444343; font-family:'Montserrat-Medium'; font-size:5.9573px;">00:00</text>
			</g>
			<g>
				<g>
					<rect x="518.363" y="133.925" style="fill:#1FBBA6;" width="215.274" height="39.349"/>
					<rect x="520.363" y="135.922" style="fill:#1FDDC1;" width="211.27" height="17.68"/>
					
						<text transform="matrix(1 0 0 1 581.6802 158.8888)" style="fill:#444343; font-family:'Montserrat-Medium'; font-size:18.7016px;">Option Menu</text>
					<g>
						<g>
							<rect x="562.387" y="135.922" style="fill:#444343;" width="2.107" height="35.354"/>
						</g>
						<g style="opacity:0.6;">
							<g>
								<rect x="564.494" y="135.922" style="fill:#1FDDC1;" width="2.107" height="35.354"/>
							</g>
						</g>
					</g>
					<g>
						<path style="fill:#444343;" d="M724.737,152.138l-3.693,4.171c-0.171,0.193-0.448,0.193-0.619,0l-3.693-4.171
							c-0.276-0.312-0.081-0.844,0.31-0.844h7.385C724.818,151.294,725.013,151.826,724.737,152.138z"/>
					</g>
					<g>
						<path style="fill:#444343;" d="M551.286,148.049h-21.255c-1.137,0-2.058-0.921-2.058-2.058v0c0-1.137,0.921-2.058,2.058-2.058
							h21.255c1.137,0,2.058,0.921,2.058,2.058v0C553.345,147.127,552.423,148.049,551.286,148.049z"/>
						<path style="fill:#444343;" d="M551.286,155.657h-21.255c-1.137,0-2.058-0.921-2.058-2.058l0,0
							c0-1.137,0.921-2.058,2.058-2.058h21.255c1.137,0,2.058,0.921,2.058,2.058l0,0
							C553.345,154.736,552.423,155.657,551.286,155.657z"/>
						<path style="fill:#444343;" d="M551.286,163.266h-21.255c-1.137,0-2.058-0.921-2.058-2.058l0,0
							c0-1.137,0.921-2.058,2.058-2.058h21.255c1.137,0,2.058,0.921,2.058,2.058l0,0
							C553.345,162.344,552.423,163.266,551.286,163.266z"/>
					</g>
				</g>
				<g>
					<rect x="518.363" y="173.274" style="fill:#444343;" width="215.274" height="39.349"/>
					<g>
						<g style="opacity:0.4;">
							<g>
								<rect x="518.363" y="175.381" style="fill:#1FDDC1;" width="215.274" height="2.107"/>
							</g>
						</g>
						<g style="opacity:0.6;">
							<g>
								<rect x="518.363" y="173.274" style="fill:#1F1E21;" width="215.274" height="2.107"/>
							</g>
						</g>
					</g>
				</g>
				<g>
					<rect x="518.363" y="212.623" style="fill:#1FBBA6;" width="215.274" height="39.349"/>
					<g>
						<g style="opacity:0.4;">
							<g>
								<rect x="518.363" y="214.729" style="fill:#1FDDC1;" width="215.274" height="2.107"/>
							</g>
						</g>
						<g style="opacity:0.6;">
							<g>
								<rect x="518.363" y="212.622" style="fill:#1F1E21;" width="215.274" height="2.107"/>
							</g>
						</g>
					</g>
				</g>
				<g>
					<rect x="518.363" y="251.971" style="fill:#444343;" width="215.274" height="39.349"/>
					<g>
						<g style="opacity:0.4;">
							<g>
								<rect x="518.363" y="254.078" style="fill:#1FDDC1;" width="215.274" height="2.107"/>
							</g>
						</g>
						<g style="opacity:0.6;">
							<g>
								<rect x="518.363" y="251.971" style="fill:#1F1E21;" width="215.274" height="2.107"/>
							</g>
						</g>
					</g>
				</g>
				<g>
					<rect x="518.363" y="291.32" style="fill:#444343;" width="215.274" height="39.349"/>
					<g>
						<g style="opacity:0.4;">
							<g>
								<rect x="518.363" y="293.427" style="fill:#1FDDC1;" width="215.274" height="2.107"/>
							</g>
						</g>
						<g style="opacity:0.6;">
							<g>
								<rect x="518.363" y="291.32" style="fill:#1F1E21;" width="215.274" height="2.107"/>
							</g>
						</g>
					</g>
				</g>
				<g>
					<rect x="518.363" y="330.669" style="fill:#444343;" width="215.274" height="39.349"/>
					<g>
						<g style="opacity:0.4;">
							<g>
								<rect x="518.363" y="332.776" style="fill:#1FDDC1;" width="215.274" height="2.107"/>
							</g>
						</g>
						<g style="opacity:0.6;">
							<g>
								<rect x="518.363" y="330.669" style="fill:#1F1E21;" width="215.274" height="2.107"/>
							</g>
						</g>
					</g>
				</g>
				<g>
					<g>
						
							<text transform="matrix(1 0 0 1 543.0953 198.237)" style="fill:#1FBBA6; font-family:'Montserrat-Medium'; font-size:13.4443px;">Option 1</text>
					</g>
					<g>
						<path style="fill:#1FBBA6;" d="M531.484,188.946l4.171,3.693c0.193,0.171,0.193,0.448,0,0.619l-4.171,3.693
							c-0.311,0.276-0.844,0.08-0.844-0.31v-7.385C530.64,188.865,531.173,188.67,531.484,188.946z"/>
					</g>
				</g>
				<g>
					<g>
						
							<text transform="matrix(1 0 0 1 543.0953 237.5861)" style="fill:#444343; font-family:'Montserrat-Medium'; font-size:13.4443px;">Option 2</text>
					</g>
					<g>
						<path style="fill:#444343;" d="M531.484,228.295l4.171,3.693c0.193,0.171,0.193,0.448,0,0.619l-4.171,3.693
							c-0.311,0.276-0.844,0.081-0.844-0.31v-7.385C530.64,228.214,531.173,228.019,531.484,228.295z"/>
					</g>
				</g>
				<g>
					<g>
						
							<text transform="matrix(1 0 0 1 543.0953 276.9347)" style="fill:#1FBBA6; font-family:'Montserrat-Medium'; font-size:13.4443px;">Option 3</text>
					</g>
					<g>
						<path style="fill:#1FBBA6;" d="M531.484,267.643l4.171,3.693c0.193,0.171,0.193,0.448,0,0.619l-4.171,3.693
							c-0.311,0.276-0.844,0.08-0.844-0.31v-7.385C530.64,267.563,531.173,267.368,531.484,267.643z"/>
					</g>
				</g>
				<g>
					<g>
						
							<text transform="matrix(1 0 0 1 543.0953 316.2834)" style="fill:#1FBBA6; font-family:'Montserrat-Medium'; font-size:13.4443px;">Option 4</text>
					</g>
					<g>
						<path style="fill:#1FBBA6;" d="M531.484,306.992l4.171,3.693c0.193,0.171,0.193,0.448,0,0.619l-4.171,3.693
							c-0.311,0.276-0.844,0.081-0.844-0.31v-7.385C530.64,306.912,531.173,306.717,531.484,306.992z"/>
					</g>
				</g>
				<g>
					<g>
						
							<text transform="matrix(1 0 0 1 543.0962 354.2912)" style="fill:#1FBBA6; font-family:'Montserrat-Medium'; font-size:13.4443px;">Option 5</text>
					</g>
					<g>
						<path style="fill:#1FBBA6;" d="M531.484,346.341l4.171,3.693c0.193,0.171,0.193,0.448,0,0.619l-4.171,3.693
							c-0.311,0.276-0.844,0.081-0.844-0.31v-7.385C530.64,346.261,531.173,346.065,531.484,346.341z"/>
					</g>
				</g>
			</g>
			<g>
				<rect x="608.05" y="75.422" style="fill:#444343;" width="1.65" height="33.405"/>
				<g>
					<rect x="609.7" y="75.422" style="fill:#1FDDC1;" width="1.65" height="33.405"/>
				</g>
			</g>
			<path style="fill:#444343;" d="M546.522,400.009c0,3.36-2.724,6.083-6.083,6.083c-3.36,0-6.083-2.724-6.083-6.083
				s2.724-6.083,6.083-6.083C543.798,393.926,546.522,396.65,546.522,400.009z"/>
			<path style="fill:#444343;" d="M602.917,400.871l-9.637,6.927c-0.702,0.504-1.68,0.003-1.68-0.862v-13.854
				c0-0.864,0.978-1.366,1.68-0.862l9.637,6.927C603.506,399.571,603.506,400.448,602.917,400.871z"/>
			<g>
				<path style="fill:#444343;" d="M650.274,408.331h-0.189c-1.135,0-2.054-0.92-2.054-2.054v-12.535
					c0-1.135,0.92-2.054,2.054-2.054h0.189c1.135,0,2.054,0.92,2.054,2.054v12.535C652.328,407.411,651.409,408.331,650.274,408.331
					z"/>
				<path style="fill:#444343;" d="M658.956,408.331h-0.189c-1.135,0-2.054-0.92-2.054-2.054v-12.535
					c0-1.135,0.92-2.054,2.054-2.054h0.189c1.134,0,2.054,0.92,2.054,2.054v12.535C661.01,407.411,660.09,408.331,658.956,408.331z"
					/>
			</g>
			<g>
				<path style="fill:#444343;" d="M717.607,395.433v9.154c0,0.177-0.031,0.35-0.091,0.506c-0.048,0.139-0.12,0.266-0.209,0.381
					l-0.002,0.002c-0.034,0.043-0.07,0.084-0.108,0.125c-0.113,0.12-0.247,0.218-0.393,0.292c-0.026,0.014-0.053,0.026-0.082,0.038
					c-0.024,0.01-0.05,0.022-0.074,0.029c-0.002,0.002-0.002,0.002-0.002,0.002c-0.048,0.017-0.094,0.031-0.141,0.046
					c-0.012,0.002-0.024,0.005-0.036,0.007c-0.024,0.005-0.046,0.01-0.069,0.014c-0.038,0.007-0.079,0.014-0.122,0.017
					c-0.045,0.005-0.094,0.007-0.139,0.007h-9.152c-0.813,0-1.469-0.657-1.469-1.467v-9.154c0-0.046,0.002-0.094,0.007-0.139
					c0-0.012,0.002-0.024,0.002-0.036c0.005-0.038,0.012-0.077,0.017-0.113c0.014-0.06,0.029-0.12,0.05-0.177
					c0.01-0.036,0.024-0.072,0.038-0.105c0.014-0.033,0.029-0.065,0.045-0.096c0.022-0.041,0.043-0.082,0.07-0.12
					c0.031-0.053,0.067-0.101,0.105-0.149c0.036-0.041,0.072-0.082,0.113-0.12c0.038-0.038,0.079-0.072,0.122-0.105l0.002-0.002
					c0.117-0.091,0.247-0.163,0.388-0.216c0.158-0.06,0.331-0.091,0.508-0.091h9.152
					C716.95,393.964,717.607,394.623,717.607,395.433z"/>
			</g>
			<g>
				<path style="fill:#444343;" d="M518.363,455.261c0,5.133,2.083,9.788,5.441,13.146c3.369,3.369,8.024,5.452,13.156,5.452h62.998
					c10.266,0,18.598-8.332,18.598-18.598c0-5.133-2.083-9.788-5.452-13.146c-3.358-3.369-8.013-5.452-13.146-5.452h-62.998
					C526.684,436.664,518.363,444.995,518.363,455.261z"/>
				<path style="fill:#1FBBA6;" d="M538.321,472.796c9.669,0,17.535-7.867,17.535-17.535c0-4.688-1.825-9.089-5.139-12.394
					c-3.306-3.316-7.707-5.141-12.396-5.141h-1.361c-9.669,0-17.535,7.867-17.535,17.535c0,4.684,1.822,9.086,5.13,12.395
					c3.315,3.315,7.72,5.14,12.405,5.14H538.321z"/>
				<path style="fill:#1FDDC1;" d="M553.853,455.262h-32.43c0-8.57,6.97-15.54,15.54-15.54h1.36c4.15,0,8.05,1.62,10.98,4.56
					C552.243,447.212,553.853,451.112,553.853,455.262z"/>
				<g>
					
						<text transform="matrix(1 0 0 1 570.5703 458.9911)" style="fill:#1FBBA6; font-family:'Montserrat-SemiBold'; font-size:12.7527px;">OFF</text>
				</g>
			</g>
			<g>
				<path style="fill:#1FBBA6;" d="M733.637,455.261c0,5.133-2.083,9.777-5.441,13.146c-3.369,3.369-8.024,5.452-13.156,5.452
					h-62.998c-10.266,0-18.598-8.332-18.598-18.598c0-5.133,2.083-9.777,5.452-13.146c3.358-3.369,8.013-5.452,13.146-5.452h62.998
					C725.316,436.664,733.637,444.995,733.637,455.261z"/>
				<path style="fill:#1FDDC1;" d="M731.633,455.262h-96.19c0-4.43,1.73-8.59,4.87-11.73c3.13-3.14,7.29-4.87,11.73-4.87h63
					C724.193,438.662,731.633,446.112,731.633,455.262z"/>
				<g>
					<path style="fill:#444343;" d="M713.679,472.796c-9.669,0-17.535-7.867-17.535-17.535c0-4.678,1.826-9.08,5.14-12.395
						c3.305-3.315,7.706-5.14,12.395-5.14h1.36c9.669,0,17.535,7.867,17.535,17.535c0,4.674-1.822,9.076-5.131,12.396
						c-3.314,3.314-7.719,5.139-12.404,5.139H713.679z"/>
				</g>
				
					<text transform="matrix(1 0 0 1 658.8613 458.9921)" style="fill:#444343; font-family:'Montserrat-SemiBold'; font-size:12.7527px;">ON</text>
			</g>
			<path style="fill:#444343;" d="M536.96,462.796c-2.043,0-3.888-0.765-5.334-2.211c-1.439-1.439-2.201-3.281-2.201-5.324
				c0-4.154,3.38-7.534,7.535-7.534h1.36c2.041,0,3.878,0.761,5.315,2.201c1.46,1.456,2.221,3.293,2.221,5.333
				c0,4.155-3.38,7.535-7.535,7.535H536.96z"/>
			<path style="fill:#1FBBA6;" d="M713.679,462.796c-4.155,0-7.535-3.38-7.535-7.535c0-2.036,0.765-3.877,2.212-5.323
				c1.445-1.45,3.282-2.211,5.323-2.211h1.36c4.155,0,7.535,3.38,7.535,7.534c0,2.038-0.766,3.884-2.215,5.338
				c-1.433,1.434-3.277,2.197-5.32,2.197H713.679z"/>
			<g>
				<g>
					<path style="fill:#1FBBA6;" d="M491.538,412.726H35.039c-10.314,0-18.676-8.362-18.676-18.676l0,0
						c0-10.315,8.362-18.676,18.676-18.676h456.499c10.315,0,18.676,8.362,18.676,18.676l0,0
						C510.214,404.365,501.852,412.726,491.538,412.726z"/>
					<path style="fill:#1FDDC1;" d="M508.213,394.043H18.363c0.01-9.2,7.48-16.67,16.68-16.67h456.49
						C500.733,377.373,508.203,384.843,508.213,394.043z"/>
					
						<text transform="matrix(1 0 0 1 41.7964 399.0715)" style="fill:#444343; font-family:'Montserrat-Medium'; font-size:17.106px;">Pages</text>
					
						<text transform="matrix(1 0 0 1 442.9287 399.0715)" style="fill:#444343; font-family:'Montserrat-Medium'; font-size:17.106px;">Next</text>
				</g>
				<g>
					<g>
						<rect x="113.255" y="377.32" style="fill:#444343;" width="2" height="33.46"/>
						<rect x="115.255" y="377.32" style="fill:#1FDDC1;" width="2" height="33.46"/>
					</g>
					<g>
						<rect x="157.005" y="377.32" style="fill:#444343;" width="2" height="33.46"/>
						<rect x="159.005" y="377.32" style="fill:#1FDDC1;" width="2" height="33.46"/>
					</g>
					<g>
						<rect x="200.755" y="377.32" style="fill:#444343;" width="2" height="33.46"/>
						<rect x="202.755" y="377.32" style="fill:#1FDDC1;" width="2" height="33.46"/>
					</g>
					<g>
						<rect x="244.505" y="377.32" style="fill:#444343;" width="2" height="33.46"/>
						<rect x="246.505" y="377.32" style="fill:#1FDDC1;" width="2" height="33.46"/>
					</g>
					<g>
						<rect x="288.255" y="377.32" style="fill:#444343;" width="2" height="33.46"/>
						<rect x="290.255" y="377.32" style="fill:#1FDDC1;" width="2" height="33.46"/>
					</g>
					<g>
						<rect x="332.005" y="377.32" style="fill:#444343;" width="2" height="33.46"/>
						<rect x="334.005" y="377.32" style="fill:#1FDDC1;" width="2" height="33.46"/>
					</g>
					<g>
						<rect x="375.755" y="377.32" style="fill:#444343;" width="2" height="33.46"/>
						<rect x="377.755" y="377.32" style="fill:#1FDDC1;" width="2" height="33.46"/>
					</g>
					<g>
						<rect x="419.505" y="377.32" style="fill:#444343;" width="2" height="33.46"/>
						<rect x="421.505" y="377.32" style="fill:#1FDDC1;" width="2" height="33.46"/>
					</g>
				</g>
				<rect x="248.523" y="377.318" style="fill:#444343;" width="39.73" height="33.46"/>
				<g>
					<polygon style="fill:#2D2B2C;" points="288.255,377.32 288.253,377.32 288.253,377.318 284.493,377.318 284.493,377.32 
						248.526,377.32 248.526,380.732 284.493,380.732 284.493,410.778 288.253,410.778 288.253,380.732 288.255,380.732 					"/>
				</g>
				<g>
					<g>
						<path style="fill:#444343;" d="M494.52,398.944v-9.787c0-0.871,0.989-1.373,1.692-0.859l6.696,4.893
							c0.582,0.425,0.582,1.293,0,1.718l-6.696,4.894C495.509,400.316,494.52,399.814,494.52,398.944z"/>
					</g>
					<g>
						<path style="fill:#444343;" d="M32.057,398.944v-9.787c0-0.871-0.989-1.373-1.692-0.859l-6.696,4.893
							c-0.582,0.425-0.582,1.293,0,1.718l6.696,4.894C31.068,400.316,32.057,399.814,32.057,398.944z"/>
					</g>
				</g>
				<g>
					<path style="fill:#444343;" d="M129.651,394.837c0,1.151-0.933,2.083-2.083,2.083c-1.151,0-2.083-0.933-2.083-2.083
						s0.933-2.083,2.083-2.083C128.718,392.754,129.651,393.687,129.651,394.837z"/>
					<path style="fill:#444343;" d="M138.151,394.837c0,1.151-0.933,2.083-2.083,2.083c-1.151,0-2.083-0.933-2.083-2.083
						s0.933-2.083,2.083-2.083C137.218,392.754,138.151,393.687,138.151,394.837z"/>
					<path style="fill:#444343;" d="M146.651,394.837c0,1.151-0.933,2.083-2.083,2.083c-1.151,0-2.083-0.933-2.083-2.083
						s0.933-2.083,2.083-2.083C145.718,392.754,146.651,393.687,146.651,394.837z"/>
				</g>
				<g>
					<path style="fill:#444343;" d="M392.901,394.837c0,1.151-0.933,2.083-2.083,2.083s-2.083-0.933-2.083-2.083
						s0.933-2.083,2.083-2.083S392.901,393.687,392.901,394.837z"/>
					<path style="fill:#444343;" d="M401.401,394.837c0,1.151-0.933,2.083-2.083,2.083s-2.083-0.933-2.083-2.083
						s0.933-2.083,2.083-2.083S401.401,393.687,401.401,394.837z"/>
					<path style="fill:#444343;" d="M409.901,394.837c0,1.151-0.933,2.083-2.083,2.083s-2.083-0.933-2.083-2.083
						s0.933-2.083,2.083-2.083S409.901,393.687,409.901,394.837z"/>
				</g>
				
					<text transform="matrix(1 0 0 1 175.5247 399.071)" style="fill:#444343; font-family:'Montserrat-Medium'; font-size:17.106px;">6</text>
				
					<text transform="matrix(1 0 0 1 219.3579 399.071)" style="fill:#444343; font-family:'Montserrat-Medium'; font-size:17.106px;">7</text>
				
					<text transform="matrix(1 0 0 1 307.3579 399.071)" style="fill:#444343; font-family:'Montserrat-Medium'; font-size:17.106px;">9</text>
				
					<text transform="matrix(1 0 0 1 347.0247 399.071)" style="fill:#444343; font-family:'Montserrat-Medium'; font-size:17.106px;">10</text>
				<g>
					
						<text transform="matrix(1 0 0 1 262.5247 399.071)" style="fill:#1FBBA6; font-family:'Montserrat-Medium'; font-size:17.106px;">8</text>
				</g>
			</g>
			<g>
				<path style="fill:#444343;" d="M21.326,467.839h485.845c2.742,0,4.963,2.221,4.963,4.963c0,2.731-2.221,4.952-4.963,4.952
					H21.326c-2.742,0-4.963-2.221-4.963-4.952c0-1.371,0.553-2.614,1.456-3.507C18.711,468.391,19.955,467.839,21.326,467.839z"/>
				<path style="fill:#1FBBA6;" d="M118.336,467.839h46.218c2.742,0,4.963,2.221,4.963,4.963c0,2.731-2.221,4.952-4.963,4.952
					h-46.218c-2.742,0-4.963-2.221-4.963-4.952c0-1.371,0.553-2.614,1.456-3.507C115.722,468.391,116.965,467.839,118.336,467.839z"
					/>
				<path style="fill:#1FDDC1;" d="M168.513,472.792h-54.14c0-1.06,0.41-2.05,1.16-2.79c0.75-0.75,1.74-1.16,2.8-1.16h46.22
					C166.743,468.842,168.503,470.602,168.513,472.792z"/>
			</g>
			<g>
				<path style="fill:#444343;" d="M502.967,438.657v0.009c0,2.297-1.868,4.164-4.164,4.164H29.694
					c-2.297,0-4.164-1.868-4.164-4.164v-0.009c0-2.297,1.868-4.165,4.164-4.165h469.109
					C501.099,434.493,502.967,436.361,502.967,438.657z"/>
				<path style="fill:#1FBBA6;" d="M364.787,438.657v0.009c0,2.297-1.868,4.164-4.164,4.164H29.694
					c-2.297,0-4.164-1.868-4.164-4.164v-0.009c0-2.297,1.868-4.165,4.164-4.165h330.928
					C362.919,434.493,364.787,436.361,364.787,438.657z"/>
				<path style="fill:#1FDDC1;" d="M363.783,438.662H26.533c0.01-1.76,1.42-3.17,3.16-3.17h330.93
					C362.363,435.492,363.783,436.912,363.783,438.662z"/>
				<circle style="fill:#1FBBA6;" cx="361.755" cy="438.662" r="8"/>
			</g>
		</g>
	</g>
</g>
</svg>
